<?xml version="1.0" encoding="UTF-8" standalone="no"?><svg xmlns="http://www.w3.org/2000/svg" xmlns:xlink="http://www.w3.org/1999/xlink" contentScriptType="application/ecmascript" contentStyleType="text/css" height="116px" preserveAspectRatio="none" style="width:466px;height:116px;" version="1.1" viewBox="0 0 466 116" width="466px" zoomAndPan="magnify"><defs><filter height="300%" id="fbk0sbi" width="300%" x="-1" y="-1"><feGaussianBlur result="blurOut" stdDeviation="2.0"/><feColorMatrix in="blurOut" result="blurOut2" type="matrix" values="0 0 0 0 0 0 0 0 0 0 0 0 0 0 0 0 0 0 .4 0"/><feOffset dx="4.0" dy="4.0" in="blurOut2" result="blurOut3"/><feBlend in="SourceGraphic" in2="blurOut3" mode="normal"/></filter></defs><g><!--class Font--><rect fill="#F8F8F8" filter="url(#fbk0sbi)" height="48" style="stroke: #383838; stroke-width: 1.5;" width="56" x="6" y="34"/><ellipse cx="21" cy="50" fill="#C2C2C2" rx="11" ry="11" style="stroke: #383838; stroke-width: 1.0;"/><path d="M24.8281,55.6563 Q22.9531,56.3125 21.1406,56.3125 Q18.5469,56.3125 16.9609,54.5313 Q15.375,52.75 15.375,49.8438 Q15.375,47.1563 16.7813,45.3906 Q17.6406,44.3125 18.7578,43.8594 Q19.875,43.4063 21.6563,43.4063 Q23.375,43.4063 24.8281,43.7656 L24.8281,45.75 Q22.9531,45.0469 21.7031,45.0469 Q20.0156,45.0469 19.0234,46.3672 Q18.0313,47.6875 18.0313,49.9219 Q18.0313,51.9688 19.0703,53.2656 Q20.1094,54.5625 21.75,54.5625 Q23.1406,54.5625 24.8281,53.7813 L24.8281,55.6563 Z "/><text fill="#000000" font-family="sans-serif" font-size="12" lengthAdjust="spacingAndGlyphs" textLength="24" x="35" y="54.4209">Font</text><line style="stroke: #383838; stroke-width: 1.5;" x1="7" x2="61" y1="66" y2="66"/><line style="stroke: #383838; stroke-width: 1.5;" x1="7" x2="61" y1="74" y2="74"/><!--class Text--><rect fill="#F8F8F8" filter="url(#fbk0sbi)" height="99.1973" style="stroke: #383838; stroke-width: 1.5;" width="84" x="149" y="8.5"/><ellipse cx="175.7" cy="24.5" fill="#C2C2C2" rx="11" ry="11" style="stroke: #383838; stroke-width: 1.0;"/><path d="M179.5281,30.1563 Q177.6531,30.8125 175.8406,30.8125 Q173.2469,30.8125 171.6609,29.0313 Q170.075,27.25 170.075,24.3438 Q170.075,21.6563 171.4813,19.8906 Q172.3406,18.8125 173.4578,18.3594 Q174.575,17.9063 176.3563,17.9063 Q178.075,17.9063 179.5281,18.2656 L179.5281,20.25 Q177.6531,19.5469 176.4031,19.5469 Q174.7156,19.5469 173.7234,20.8672 Q172.7313,22.1875 172.7313,24.4219 Q172.7313,26.4688 173.7703,27.7656 Q174.8094,29.0625 176.45,29.0625 Q177.8406,29.0625 179.5281,28.2813 L179.5281,30.1563 Z "/><text fill="#000000" font-family="sans-serif" font-size="12" lengthAdjust="spacingAndGlyphs" textLength="26" x="192.3" y="28.9209">Text</text><line style="stroke: #383838; stroke-width: 1.5;" x1="150" x2="232" y1="40.5" y2="40.5"/><ellipse cx="160" cy="52.3997" fill="none" rx="3" ry="3" style="stroke: #545454; stroke-width: 1.0;"/><text fill="#000000" font-family="sans-serif" font-size="11" lengthAdjust="spacingAndGlyphs" textLength="24" x="169" y="54.9521">Font</text><ellipse cx="160" cy="65.199" fill="none" rx="3" ry="3" style="stroke: #545454; stroke-width: 1.0;"/><text fill="#000000" font-family="sans-serif" font-size="11" lengthAdjust="spacingAndGlyphs" textLength="58" x="169" y="67.7515">fontWeight</text><ellipse cx="160" cy="77.9983" fill="none" rx="3" ry="3" style="stroke: #545454; stroke-width: 1.0;"/><text fill="#000000" font-family="sans-serif" font-size="11" lengthAdjust="spacingAndGlyphs" textLength="43" x="169" y="80.5508">fontSize</text><ellipse cx="160" cy="90.7976" fill="none" rx="3" ry="3" style="stroke: #545454; stroke-width: 1.0;"/><text fill="#000000" font-family="sans-serif" font-size="11" lengthAdjust="spacingAndGlyphs" textLength="54" x="169" y="93.3501">lineHeight</text><line style="stroke: #383838; stroke-width: 1.5;" x1="150" x2="232" y1="99.6973" y2="99.6973"/><!--class Component--><rect fill="#F8F8F8" filter="url(#fbk0sbi)" height="73.5986" style="stroke: #383838; stroke-width: 1.5;" width="137" x="320" y="21"/><ellipse cx="352.55" cy="37" fill="#C2C2C2" rx="11" ry="11" style="stroke: #383838; stroke-width: 1.0;"/><path d="M356.3781,42.6563 Q354.5031,43.3125 352.6906,43.3125 Q350.0969,43.3125 348.5109,41.5313 Q346.925,39.75 346.925,36.8438 Q346.925,34.1563 348.3313,32.3906 Q349.1906,31.3125 350.3078,30.8594 Q351.425,30.4063 353.2063,30.4063 Q354.925,30.4063 356.3781,30.7656 L356.3781,32.75 Q354.5031,32.0469 353.2531,32.0469 Q351.5656,32.0469 350.5734,33.3672 Q349.5813,34.6875 349.5813,36.9219 Q349.5813,38.9688 350.6203,40.2656 Q351.6594,41.5625 353.3,41.5625 Q354.6906,41.5625 356.3781,40.7813 L356.3781,42.6563 Z "/><text fill="#000000" font-family="sans-serif" font-size="12" lengthAdjust="spacingAndGlyphs" textLength="66" x="370.45" y="41.4209">Component</text><line style="stroke: #383838; stroke-width: 1.5;" x1="321" x2="456" y1="53" y2="53"/><ellipse cx="331" cy="64.8997" fill="none" rx="3" ry="3" style="stroke: #545454; stroke-width: 1.0;"/><text fill="#000000" font-family="sans-serif" font-size="11" lengthAdjust="spacingAndGlyphs" textLength="24" x="340" y="67.4521">Text</text><ellipse cx="331" cy="77.699" fill="none" rx="3" ry="3" style="stroke: #545454; stroke-width: 1.0;"/><text fill="#000000" font-family="sans-serif" font-size="11" lengthAdjust="spacingAndGlyphs" textLength="111" x="340" y="80.2515">arbitrary parameters</text><line style="stroke: #383838; stroke-width: 1.5;" x1="321" x2="456" y1="86.5986" y2="86.5986"/><path d="M62.0685,58 C84.725,58 117.101,58 143.741,58 " fill="none" style="stroke: #383838; stroke-width: 1.0;"/><polygon fill="#383838" points="148.988,58,139.988,54,143.988,58,139.988,62,148.988,58" style="stroke: #383838; stroke-width: 1.0;"/><text fill="#000000" font-family="sans-serif" font-size="13" lengthAdjust="spacingAndGlyphs" textLength="49" x="81" y="53.3525">used by</text><path d="M233.261,58 C256.889,58 287.01,58 314.386,58 " fill="none" style="stroke: #383838; stroke-width: 1.0;"/><polygon fill="#383838" points="319.464,58,310.464,54,314.464,58,310.464,62,319.464,58" style="stroke: #383838; stroke-width: 1.0;"/><text fill="#000000" font-family="sans-serif" font-size="13" lengthAdjust="spacingAndGlyphs" textLength="49" x="252" y="53.3525">used by</text></g>
<g transform="translate(0.000000,17.000000) scale(0.100000,-0.100000)"
fill="#000000" stroke="none">
<path d="M21 157 c-29 -35 -16 -97 20 -97 15 0 19 -5 15 -16 -3 -9 -6 -20 -6
-25 0 -5 -4 -9 -10 -9 -14 0 -12 27 3 33 6 3 2 6 -10 6 -30 1 -31 -35 -3 -44
28 -9 47 9 55 51 3 20 9 42 12 50 3 8 -1 14 -11 14 -9 0 -16 -8 -16 -19 0 -26
-15 -34 -30 -16 -13 16 -6 48 16 70 14 13 13 15 -4 15 -11 0 -25 -6 -31 -13z"/>
<path d="M80 150 c0 -13 5 -20 13 -17 6 2 12 10 12 17 0 7 -6 15 -12 18 -8 2
-13 -5 -13 -18z"/>
<path d="M347 164 c-13 -13 -7 -24 14 -24 11 0 19 5 17 12 -5 14 -22 21 -31
12z"/>
<path d="M103 85 c-9 -40 -8 -45 8 -45 13 0 19 9 21 33 2 24 7 31 21 29 10 -2
17 3 17 13 0 10 -9 15 -28 15 -26 0 -30 -5 -39 -45z"/>
<path d="M175 101 c-24 -48 -13 -59 64 -60 63 -1 69 1 79 25 15 31 15 64 1 64
-6 0 -8 -8 -5 -18 4 -10 -1 -27 -10 -38 -14 -18 -15 -17 -9 19 5 29 3 37 -9
37 -9 0 -18 -13 -22 -35 -3 -19 -10 -35 -14 -35 -4 0 -4 16 0 35 8 35 8 35
-26 35 -27 0 -36 -6 -49 -29z m47 -6 c-5 -28 -22 -44 -22 -21 0 21 11 46 20
46 4 0 5 -11 2 -25z"/>
<path d="M340 116 c0 -7 -3 -28 -6 -45 -6 -26 -3 -31 13 -31 10 0 25 6 32 12
11 10 13 10 7 1 -5 -9 3 -13 28 -13 25 0 36 4 36 15 0 8 -4 15 -10 15 -5 0
-10 -4 -10 -10 0 -5 -5 -10 -11 -10 -6 0 -2 12 9 28 36 51 36 52 -2 52 -25 0
-36 -4 -36 -15 0 -8 5 -15 10 -15 6 0 10 5 10 12 0 6 3 9 6 6 9 -10 -19 -46
-39 -52 -17 -4 -18 -1 -13 30 6 27 4 34 -9 34 -8 0 -15 -6 -15 -14z"/>
<path d="M472 118 c-7 -7 -12 -27 -12 -46 0 -30 2 -33 27 -30 17 2 32 12 39
27 7 13 18 28 26 33 10 8 9 8 -4 4 -12 -3 -18 0 -18 9 0 18 -41 20 -58 3z m29
-51 c-13 -13 -15 11 -4 40 7 16 8 15 11 -6 2 -13 -1 -28 -7 -34z"/>
</g>
</svg>